<?xml version="1.0" encoding="UTF-8" standalone="no"?>
<svg
   xmlns:dc="http://purl.org/dc/elements/1.1/"
   xmlns:cc="http://creativecommons.org/ns#"
   xmlns:rdf="http://www.w3.org/1999/02/22-rdf-syntax-ns#"
   xmlns:svg="http://www.w3.org/2000/svg"
   xmlns="http://www.w3.org/2000/svg"
   width="510"
   height="400"
   version="1.1"
   viewBox="0 0 134.94 105.83"
   id="svg12">
  <metadata
     id="metadata18">
    <rdf:RDF>
      <cc:Work
         rdf:about="">
        <dc:format>image/svg+xml</dc:format>
        <dc:type
           rdf:resource="http://purl.org/dc/dcmitype/StillImage" />
        <dc:title></dc:title>
      </cc:Work>
    </rdf:RDF>
  </metadata>
  <defs
     id="defs16" />
  <g
     id="g883"
     transform="translate(-6.6513112)">
    <g
       id="g852"
       transform="translate(-31.239424)">
      <path
         d="m 41.746061,2.6428795 h 36.732168 q 7.775422,0 14.076195,3.7536521 6.300773,3.7536524 10.054426,10.1884844 3.88771,6.300773 3.88771,13.942137 v 0.134059 q -0.13406,7.105127 -3.48553,13.137782 -3.21742,6.032656 -8.981957,9.920367 -5.630478,3.753652 -12.601546,4.423947 H 80.355055 L 106.49656,103.18713 H 93.358778 L 67.48539,58.411426 H 53.543253 V 103.18713 H 41.746061 Z M 53.543253,13.635718 v 33.782869 h 24.934976 q 4.423947,0 8.04354,-2.279003 3.753652,-2.413062 5.898596,-6.166714 2.279003,-3.887711 2.279003,-8.311658 v -0.134059 q 0,-4.423948 -2.279003,-8.311659 -2.144944,-3.887711 -5.898596,-6.166714 -3.619593,-2.413062 -8.04354,-2.413062 z"
         style="font-style:normal;font-variant:normal;font-weight:500;font-stretch:normal;font-size:134.059px;line-height:1.25;font-family:Roland;-inkscape-font-specification:'Roland Medium';letter-spacing:0px;word-spacing:0px;stroke-width:0.264587"
         id="path867" />
      <path
         id="path869"
         style="font-style:normal;font-variant:normal;font-weight:500;font-stretch:normal;font-size:134.059px;line-height:1.25;font-family:Roland;-inkscape-font-specification:'Roland Medium';letter-spacing:0px;word-spacing:0px;stroke-width:0.999999"
         d="M 254.57031 9.9980469 L 254.57031 33.263672 C 258.76111 38.460867 262.59031 43.98959 266.01562 49.830078 C 278.07868 69.488583 284.29297 91.995658 284.29297 115.38672 L 284.29297 116.125 L 284.28516 116.36133 C 283.87701 137.99177 278.3974 158.83746 268.06055 177.51172 C 264.19649 184.72546 259.6765 191.5021 254.57031 197.79688 L 254.57031 332.05273 L 288.20117 390.00195 L 393.39844 390.00195 C 412.98971 390.00195 430.72199 385.27229 446.59766 375.81445 C 462.47332 366.35661 475.13979 353.69012 484.59766 337.81445 C 494.39328 321.601 499.29297 303.69867 499.29297 284.10742 C 498.95519 266.20507 493.88742 249.82327 484.0918 234.96094 C 474.63393 220.09861 462.97982 208.4445 449.13086 200 C 462.97982 191.55549 474.63393 179.90139 484.0918 165.03906 C 493.88742 150.17673 498.95519 133.79493 499.29297 115.89258 L 499.29297 115.38672 C 499.29297 96.133243 494.39328 78.567077 484.59766 62.691406 C 475.13979 46.477957 462.47332 33.643393 446.59766 24.185547 C 430.72199 14.727701 412.98971 9.9980469 393.39844 9.9980469 L 254.57031 9.9980469 z M 299.1582 51.544922 L 393.39844 51.544922 C 404.54519 51.544922 414.67875 54.585972 423.79883 60.666016 C 433.25667 66.408279 440.68732 74.17703 446.0918 83.972656 C 451.83405 93.768282 454.70508 104.23997 454.70508 115.38672 L 454.70508 115.89258 C 454.70508 127.03932 451.83405 137.51101 446.0918 147.30664 C 440.68732 156.76449 433.25667 164.53324 423.79883 170.61328 C 414.67875 176.35554 404.54519 179.22656 393.39844 179.22656 L 299.1582 179.22656 L 299.1582 51.544922 z M 299.1582 220.77344 L 393.39844 220.77344 C 404.54519 220.77344 414.67875 223.81449 423.79883 229.89453 C 433.25667 235.63679 440.68732 243.40555 446.0918 253.20117 C 451.83405 262.65902 454.70508 272.96067 454.70508 284.10742 C 454.70508 295.59195 451.83405 306.23172 446.0918 316.02734 C 440.68732 325.82297 433.25667 333.76175 423.79883 339.8418 C 414.67875 345.58406 404.54519 348.45508 393.39844 348.45508 L 299.1582 348.45508 L 299.1582 220.77344 z "
         transform="matrix(0.26458824,0,0,0.26458824,37.890735,-0.00264706)" />
    </g>
  </g>
</svg>
