<svg width="510" height="400" version="1.1" viewBox="0 0 134.94 105.83" xmlns="http://www.w3.org/2000/svg">
 <g transform="translate(3.8549 19.14)" stroke-width="3.6438">
  <g transform="matrix(2.0411 0 0 2.0418 -72.264 391.33)" fill="#ce8147" stroke="#ce8147" aria-label="Bernard">
   <path d="m67.213-197.57h16.422q3.4762 0 6.2931 1.6782t4.4951 4.555q1.7381 2.8169 1.7381 6.2332v0.0599q-0.05993 3.1765-1.798 5.8136-1.6782 2.6371-4.1355 4.1355 2.4573 1.4984 4.1355 4.1355 1.7381 2.6371 1.798 5.8136 0 3.4762-1.7381 6.353-1.6782 2.8169-4.4951 4.4951t-6.2931 1.6782h-16.422zm5.2742 4.9146v15.103h11.148q1.9778 0 3.5961-1.0189 1.6782-1.0788 2.6371-2.757 1.0189-1.7381 1.0189-3.7159v-0.0599q0-1.9778-1.0189-3.7159-0.95895-1.7381-2.6371-2.757-1.6182-1.0788-3.5961-1.0788zm0 20.018v15.103h11.148q1.9778 0 3.5961-1.0189 1.6782-1.0788 2.6371-2.8169 1.0189-1.7381 1.0189-3.7759 0-1.9778-1.0189-3.656-0.95895-1.7381-2.6371-2.757-1.6182-1.0788-3.5961-1.0788z" stroke="#ce8147" stroke-width="3.6438"/>
  </g>
  <g transform="matrix(-2.0411 0 0 2.0418 90.785 -36.063)" fill="#008dd5" stroke="#008dd5" aria-label="Roland">
   <path d="m13.709 11.75 15.145-1e-5c2.3175-2e-6 4.4152 0.5594 6.2931 1.6782s3.3763 2.6371 4.4951 4.555c1.1587 1.8779 1.7381 3.9557 1.7381 6.2332v0.05993c-0.03996 2.1177-0.55939 4.0755-1.5583 5.8736-0.95893 1.798-2.2975 3.2764-4.0156 4.4351-1.6781 1.1188-3.5561 1.7781-5.6338 1.9778h-0.47947l11.687 20.138h-5.8736l-11.567-20.018h-6.2332v20.018l-3.9975 1.1e-5zm3.9974 4.9146v15.103h11.148c1.3185 0 2.5172-0.33963 3.5961-1.0189 1.1188-0.7192 1.9978-1.6382 2.6371-2.757 0.67927-1.1587 1.0189-2.3974 1.0189-3.7159v-0.05993c0-1.3185-0.33963-2.5572-1.0189-3.7159-0.6393-1.1587-1.5183-2.0777-2.6371-2.757-1.0788-0.7192-2.2775-1.0788-3.5961-1.0788z" stroke="#008dd5" stroke-width="3.6438"/>
  </g>
 </g>
</svg>
